# xmcd
#
# Track frame offsets:
#	150
#	11542
#	23091
#	37496
#	48641
#	64313
#	76967
#	85008
#	96087
#	107415
#
# Disc length: 1551 seconds
# Revision: 3
# Processed by: cddbd v1.5.2PL0 Copyright (c) Steve Scherf et al.
# Submitted via: dBpowerAMP V12.0
#
DISCID=78060d0a
DTITLE=George Strait - Classic Christmas
DYEAR=2008
DGENRE=Christmas
TTITLE0=Joy To The World
TTITLE1=We Three Kings
TTITLE2=Silent Night
TTITLE3=Jingle Bells
TTITLE4=O Come, All Ye Faithful
TTITLE5=Up On The Housetop
TTITLE6=We Wish You A Merry Christmas
TTITLE7=O Christmas Tree
TTITLE8=Hark, The Herald Angels Sing
TTITLE9=Deck The Halls
EXTD=
EXTT0=
EXTT1=
EXTT2=
EXTT3=
EXTT4=
EXTT5=
EXTT6=
EXTT7=
EXTT8=
EXTT9=
PLAYORDER=
